<?xml version="1.0" encoding="utf-8"?>
<!-- Generator: Adobe Illustrator 21.1.0, SVG Export Plug-In . SVG Version: 6.00 Build 0)  -->
<svg version="1.1" id="Capa_1" xmlns="http://www.w3.org/2000/svg" xmlns:xlink="http://www.w3.org/1999/xlink" x="0px" y="0px"
	 viewBox="0 0 100 25" style="enable-background:new 0 0 100 25;" xml:space="preserve">
<style type="text/css">
	.st0{fill-rule:evenodd;clip-rule:evenodd;fill:#8A8A8A;}
</style>
<g>
	<g>
		<path class="st0" d="M5.7,6.8C4.6,7.3,3.6,8,2.8,8.9c-0.8,0.9-1.5,1.8-2,3c-0.5,1.1-0.7,2.3-0.7,3.6c0,1.3,0.2,2.5,0.7,3.6
			c0.5,1.1,1.1,2.1,2,3c0.8,0.9,1.8,1.5,2.9,2c1.1,0.5,2.3,0.7,3.6,0.7c1.3,0,2.5-0.2,3.6-0.7c1.1-0.5,2.1-1.1,3-2
			c0.2-0.2,0.4-0.5,0.5-0.8c0.1-0.3,0.2-0.6,0.1-0.9c0-0.3-0.1-0.6-0.2-0.9c-0.1-0.3-0.3-0.5-0.5-0.7C15.3,18.3,14.7,18,14,18
			c-0.7,0-1.3,0.3-1.8,0.8c-0.8,0.7-1.7,1.1-2.9,1.1c-0.6,0-1.1-0.1-1.7-0.3c-0.5-0.2-1-0.6-1.4-1c-0.4-0.4-0.7-0.9-1-1.4
			c-0.2-0.5-0.3-1.1-0.3-1.7c0-0.6,0.1-1.1,0.3-1.7c0.2-0.5,0.5-1,1-1.4c0.4-0.4,0.9-0.7,1.4-1c0.5-0.3,1.1-0.4,1.7-0.4
			c1.1,0,2.1,0.4,2.9,1.1c0.5,0.5,1.1,0.7,1.8,0.7c0.7,0,1.3-0.3,1.8-0.7c0.5-0.4,0.7-1,0.8-1.6c0-0.7-0.2-1.2-0.6-1.7
			C14.1,6.9,11.9,6,9.3,6C8,6,6.9,6.3,5.7,6.8z"/>
		<path class="st0" d="M18.6,6.8c-0.5,0.4-0.7,1-0.8,1.7v14c0.1,0.7,0.4,1.3,0.8,1.7c0.4,0.4,1,0.6,1.6,0.6c0.7,0,1.3-0.3,1.7-0.8
			c0.4-0.5,0.6-1,0.6-1.7V8.6C22.6,8,22.4,7.4,22,6.9c-0.4-0.5-1-0.7-1.6-0.7C19.7,6.2,19.1,6.4,18.6,6.8z"/>
		<path class="st0" d="M29.6,6.9c-1.1,0.5-2.1,1.2-2.9,2c-0.8,0.9-1.5,1.8-2,3C24.2,13,24,14.2,24,15.5v7c0,0.7,0.3,1.2,0.8,1.7
			c0.5,0.5,1.1,0.7,1.8,0.7c0.7,0,1.3-0.3,1.8-0.8c0.5-0.5,0.8-1.1,0.8-1.8v-7.2c0-0.6,0.1-1.1,0.3-1.6c0.2-0.5,0.5-1,0.9-1.3
			c0.4-0.4,0.8-0.7,1.3-0.9c0.5-0.2,1-0.3,1.6-0.3c0.6,0,1.2,0.1,1.7,0.4c0.5,0.2,1,0.6,1.4,0.9c0.4,0.4,0.7,0.9,0.9,1.4
			c0.2,0.5,0.3,1.1,0.3,1.7v7.1c0,0.7,0.2,1.3,0.7,1.8c0.5,0.5,1.1,0.7,1.7,0.7c0.7,0,1.2-0.3,1.7-0.8c0.5-0.5,0.7-1.1,0.7-1.7v-7.1
			c0-1.3-0.3-2.5-0.8-3.6c-0.5-1.1-1.2-2.1-2-2.9c-0.8-0.8-1.8-1.4-2.9-1.9c-1.1-0.4-2.3-0.7-3.5-0.7C31.9,6.1,30.7,6.4,29.6,6.9z"
			/>
		<path class="st0" d="M49.4,6.9c-1.1,0.5-2.1,1.2-2.9,2c-0.8,0.9-1.5,1.8-2,3c-0.5,1.1-0.7,2.3-0.7,3.6v7c0,0.7,0.3,1.2,0.8,1.7
			c0.5,0.5,1.1,0.7,1.8,0.7c0.7,0,1.3-0.3,1.8-0.8c0.5-0.5,0.8-1.1,0.8-1.8v-7.2c0-0.6,0.1-1.1,0.3-1.6c0.2-0.5,0.5-1,0.9-1.3
			c0.4-0.4,0.8-0.7,1.3-0.9c0.5-0.2,1-0.3,1.6-0.3c0.6,0,1.2,0.1,1.7,0.4c0.5,0.2,1,0.6,1.4,0.9c0.4,0.4,0.7,0.9,0.9,1.4
			c0.2,0.5,0.3,1.1,0.3,1.7v7.1c0,0.7,0.2,1.3,0.7,1.8c0.5,0.5,1.1,0.7,1.7,0.7c0.7,0,1.2-0.3,1.7-0.8c0.5-0.5,0.7-1.1,0.7-1.7v-7.1
			c0-1.3-0.3-2.5-0.8-3.6c-0.5-1.1-1.2-2.1-2-2.9c-0.8-0.8-1.8-1.4-2.9-1.9c-1.1-0.4-2.3-0.7-3.5-0.7C51.8,6.1,50.6,6.4,49.4,6.9z"
			/>
		<path class="st0" d="M69.3,6.9c-1.1,0.5-2.1,1.2-2.9,2c-0.8,0.9-1.5,1.8-2,3c-0.5,1.1-0.7,2.3-0.7,3.6c0,1.3,0.2,2.5,0.7,3.6
			c0.5,1.1,1.1,2.1,2,3c0.8,0.9,1.8,1.5,2.9,2c1.1,0.5,2.3,0.7,3.6,0.7c1.3,0,2.5-0.2,3.6-0.7c1.1-0.5,2.1-1.1,3-2
			c0.2-0.2,0.4-0.5,0.5-0.8c0.1-0.3,0.2-0.6,0.1-0.9c0-0.3-0.1-0.6-0.2-0.9c-0.1-0.3-0.3-0.5-0.5-0.7c-0.5-0.5-1.1-0.8-1.8-0.8
			c-0.7,0-1.3,0.3-1.8,0.8C75,19.6,74,20,72.9,20c-0.6,0-1.1-0.1-1.7-0.3c-0.5-0.2-1-0.6-1.4-1c-0.4-0.4-0.7-0.9-1-1.4
			c-0.2-0.5-0.3-1.1-0.3-1.7c0-0.6,0.1-1.1,0.3-1.7c0.2-0.5,0.5-1,1-1.4c0.4-0.4,0.9-0.7,1.4-1c0.5-0.3,1.1-0.4,1.7-0.4
			c1.1,0,2.1,0.4,2.9,1.1c0.5,0.5,1.1,0.7,1.8,0.7c0.7,0,1.3-0.3,1.8-0.7c0.5-0.4,0.7-1,0.8-1.6c0-0.7-0.2-1.2-0.6-1.7
			c-1.8-1.8-4-2.6-6.6-2.6C71.6,6.1,70.4,6.4,69.3,6.9z"/>
		<path class="st0" d="M93.7,12.2c1.3,1.4,1.3,2.2,1.3,3.4c0,0.6-0.1,1.2-0.4,1.7c-0.2,0.5-0.6,1-1,1.4c-0.4,0.4-0.9,0.7-1.4,1
			c-0.5,0.2-1.1,0.3-1.7,0.3c-0.6,0-1.2-0.1-1.7-0.3c-0.5-0.2-1-0.6-1.4-1c-0.4-0.4-0.7-0.9-1-1.4c-0.2-0.5-0.5-1.1-0.5-1.7
			c0-0.6,0.2-1.6,0.4-2.1c0.2-0.5,0.6-1,1-1.4c0.4-0.4,0.9-0.7,1.4-0.9c0.5-0.2,1.1-0.3,1.7-0.3C91.9,11,92.9,11.4,93.7,12.2z M87,7
			c-1.1,0.5-2.1,1.2-3,2c-0.8,0.8-1.5,1.8-2,2.9c-0.5,1.1-0.7,2.3-0.7,3.6c0,1.3,0.2,2.6,0.7,3.7c0.5,1.1,1.2,2.1,2,3
			c0.8,0.8,1.8,1.5,2.9,2c1.1,0.5,2.3,0.7,3.6,0.7c1.3,0,2.5-0.2,3.6-0.7c1.1-0.5,2.1-1.2,2.9-2c0.8-0.8,1.5-1.8,2-3
			c0.5-1.1,0.7-2.3,0.7-3.6c0-1.3-0.3-2.5-0.7-3.7c-0.5-1.1-1.2-2.1-2-3c-0.8-0.8-1.8-1.5-3-2c-1.1-0.5-2.3-0.7-3.6-0.7
			C89.3,6.2,88.1,6.5,87,7z"/>
	</g>
	<path class="st0" d="M18.6,0.8c-0.5,0.5-0.7,1-0.8,1.6c0,0.8,0.2,1.4,0.7,1.9C19,4.8,19.6,5,20.3,5C21,5,21.5,4.8,22,4.3
		c0.5-0.5,0.7-1.1,0.7-1.7c0-0.6-0.2-1.2-0.7-1.7c-0.5-0.5-1-0.7-1.7-0.7C19.7,0.2,19.1,0.4,18.6,0.8z"/>
</g>
</svg>
