<?xml version="1.0" encoding="utf-8"?>
<!-- Generator: Adobe Illustrator 21.1.0, SVG Export Plug-In . SVG Version: 6.00 Build 0)  -->
<svg version="1.1" id="Capa_1" xmlns="http://www.w3.org/2000/svg" xmlns:xlink="http://www.w3.org/1999/xlink" x="0px" y="0px"
	 viewBox="0 0 120 120" style="enable-background:new 0 0 120 120;" xml:space="preserve">
<style type="text/css">
	.st0{fill:#004154;}
</style>
<g>
	<g>
		<path class="st0" d="M29.6,23.5H17.4c-1.7,0-3,1.4-3,3v12.2c0,1.7,1.4,3,3,3c1.7,0,3-1.4,3-3v-9.1h9.1c1.7,0,3-1.4,3-3
			S31.3,23.5,29.6,23.5z"/>
		<path class="st0" d="M102.6,78.2c-1.7,0-3,1.4-3,3v9.1h-9.1c-1.7,0-3,1.4-3,3s1.4,3,3,3h12.2c1.7,0,3-1.4,3-3V81.3
			C105.6,79.6,104.2,78.2,102.6,78.2z"/>
		<path class="st0" d="M102.6,23.5H90.4c-1.7,0-3,1.4-3,3s1.4,3,3,3h9.1v9.1c0,1.7,1.4,3,3,3c1.7,0,3-1.4,3-3V26.6
			C105.6,24.9,104.2,23.5,102.6,23.5z"/>
		<path class="st0" d="M29.6,90.4h-9.1v-9.1c0-1.7-1.4-3-3-3c-1.7,0-3,1.4-3,3v12.2c0,1.7,1.4,3,3,3h12.2c1.7,0,3-1.4,3-3
			S31.3,90.4,29.6,90.4z"/>
		<path class="st0" d="M29.6,35.7c-1.7,0-3,1.4-3,3v42.6c0,1.7,1.4,3,3,3c1.7,0,3-1.4,3-3V38.7C32.6,37,31.3,35.7,29.6,35.7z"/>
		<path class="st0" d="M41.8,72.2c1.7,0,3-1.4,3-3V38.7c0-1.7-1.4-3-3-3c-1.7,0-3,1.4-3,3v30.4C38.7,70.8,40.1,72.2,41.8,72.2z"/>
		<path class="st0" d="M53.9,72.2c1.7,0,3-1.4,3-3V38.7c0-1.7-1.4-3-3-3c-1.7,0-3,1.4-3,3v30.4C50.9,70.8,52.2,72.2,53.9,72.2z"/>
		<path class="st0" d="M66.1,35.7c-1.7,0-3,1.4-3,3v42.6c0,1.7,1.4,3,3,3s3-1.4,3-3V38.7C69.1,37,67.8,35.7,66.1,35.7z"/>
		<path class="st0" d="M78.2,72.2c1.7,0,3-1.4,3-3V38.7c0-1.7-1.4-3-3-3s-3,1.4-3,3v30.4C75.2,70.8,76.6,72.2,78.2,72.2z"/>
		<path class="st0" d="M90.4,84.3c1.7,0,3-1.4,3-3V38.7c0-1.7-1.4-3-3-3s-3,1.4-3,3v42.6C87.4,83,88.7,84.3,90.4,84.3z"/>
		<path class="st0" d="M41.9,78.2L41.9,78.2c-1.7,0-3.1,1.4-3.1,3s1.4,3,3.1,3c1.7,0,3-1.4,3-3S43.6,78.2,41.9,78.2z"/>
		<path class="st0" d="M54,78.2L54,78.2c-1.7,0-3.1,1.4-3.1,3s1.4,3,3.1,3c1.7,0,3-1.4,3-3S55.7,78.2,54,78.2z"/>
		<path class="st0" d="M78.4,78.2L78.4,78.2c-1.7,0-3.1,1.4-3.1,3s1.4,3,3.1,3c1.7,0,3-1.4,3-3S80,78.2,78.4,78.2z"/>
	</g>
</g>
</svg>
