<?xml version="1.0" encoding="utf-8"?>
<!-- Generator: Adobe Illustrator 21.1.0, SVG Export Plug-In . SVG Version: 6.00 Build 0)  -->
<svg version="1.1" id="Capa_1" xmlns="http://www.w3.org/2000/svg" xmlns:xlink="http://www.w3.org/1999/xlink" x="0px" y="0px"
	 viewBox="0 0 120 120" style="enable-background:new 0 0 120 120;" xml:space="preserve">
<style type="text/css">
	.st0{fill:#004154;}
</style>
<g>
	<g>
		<path class="st0" d="M102.4,14.5H63v-3c0-1.7-1.4-3-3-3c-1.7,0-3,1.4-3,3v3H17.6c-5,0-9.1,4.1-9.1,9.1c0,3.9,2.5,7.3,6,8.5v52
			c0,1.7,1.4,3,3,3H57v13.1l-16,5.3c-1.6,0.5-2.4,2.2-1.9,3.8c0.5,1.6,2.2,2.4,3.8,1.9l17.2-5.7l17.2,5.7c1.6,0.5,3.3-0.3,3.8-1.9
			c0.5-1.6-0.3-3.3-1.9-3.8l-16-5.3V87.2h39.4c1.7,0,3-1.4,3-3v-52c3.5-1.2,6-4.6,6-8.5C111.5,18.6,107.4,14.5,102.4,14.5z
			 M99.4,81.1H20.6V32.6h78.9V81.1z M102.4,26.6H17.6c-1.7,0-3-1.4-3-3c0-1.7,1.4-3,3-3h84.9c1.7,0,3,1.4,3,3
			C105.5,25.3,104.1,26.6,102.4,26.6z"/>
		<path class="st0" d="M29.8,75.1h42.2c1.7,0,3-1.4,3-3c0-1.7-1.4-3-3-3h-3V47.7c0-1.7-1.4-3-3-3c-1.7,0-3,1.4-3,3v21.3h-6V53.8
			c0-1.7-1.4-3-3-3c-1.7,0-3,1.4-3,3v15.3h-6v-9.3c0-1.7-1.4-3-3-3c-1.7,0-3,1.4-3,3v9.3h-6V41.7c0-1.7-1.4-3-3-3c-1.7,0-3,1.4-3,3
			v30.4C26.8,73.7,28.2,75.1,29.8,75.1z"/>
		<path class="st0" d="M78.1,44.7h12.3c1.7,0,3-1.4,3-3c0-1.7-1.4-3-3-3H78.1c-1.7,0-3,1.4-3,3C75.1,43.4,76.4,44.7,78.1,44.7z"/>
		<path class="st0" d="M78.1,56.8h12.3c1.7,0,3-1.4,3-3c0-1.7-1.4-3-3-3H78.1c-1.7,0-3,1.4-3,3C75.1,55.4,76.4,56.8,78.1,56.8z"/>
	</g>
</g>
</svg>
