<?xml version="1.0" encoding="utf-8"?>
<!-- Generator: Adobe Illustrator 21.1.0, SVG Export Plug-In . SVG Version: 6.00 Build 0)  -->
<svg version="1.1" id="Capa_1" xmlns="http://www.w3.org/2000/svg" xmlns:xlink="http://www.w3.org/1999/xlink" x="0px" y="0px"
	 viewBox="0 0 234 457" style="enable-background:new 0 0 234 457;" xml:space="preserve">
<style type="text/css">
	.st0{fill:#2F9FB6;}
</style>
<g>
	<g>
		<circle class="st0" cx="5.8" cy="5" r="5"/>
		<circle class="st0" cx="5.7" cy="54.6" r="5"/>
		<circle class="st0" cx="5.6" cy="104.3" r="5"/>
		<circle class="st0" cx="5.5" cy="154" r="5"/>
		<circle class="st0" cx="5.4" cy="203.7" r="5"/>
		<circle class="st0" cx="5.3" cy="253.3" r="5"/>
		<circle class="st0" cx="5.2" cy="303" r="5"/>
		<circle class="st0" cx="5.1" cy="352.7" r="5"/>
		<circle class="st0" cx="5.1" cy="402.4" r="5"/>
		<circle class="st0" cx="5" cy="452" r="5"/>
		<circle class="st0" cx="30.6" cy="29.7" r="5"/>
		<circle class="st0" cx="30.5" cy="79.4" r="5"/>
		<circle class="st0" cx="30.4" cy="129.1" r="5"/>
		<circle class="st0" cx="30.3" cy="178.8" r="5"/>
		<circle class="st0" cx="30.2" cy="228.5" r="5"/>
		<circle class="st0" cx="30.1" cy="278.1" r="5"/>
		<circle class="st0" cx="30" cy="327.8" r="5"/>
		<circle class="st0" cx="29.9" cy="377.5" r="5"/>
		<circle class="st0" cx="29.8" cy="427.2" r="5"/>
		<circle class="st0" cx="55.4" cy="54.5" r="5"/>
		<circle class="st0" cx="55.3" cy="104.2" r="5"/>
		<circle class="st0" cx="55.2" cy="153.9" r="5"/>
		<circle class="st0" cx="55.1" cy="203.6" r="5"/>
		<circle class="st0" cx="55" cy="253.2" r="5"/>
		<circle class="st0" cx="54.9" cy="302.9" r="5"/>
		<circle class="st0" cx="54.8" cy="352.6" r="5"/>
		<circle class="st0" cx="54.7" cy="402.3" r="5"/>
		<circle class="st0" cx="80.2" cy="79.3" r="5"/>
		<circle class="st0" cx="80.1" cy="129" r="5"/>
		<circle class="st0" cx="80" cy="178.7" r="5"/>
		<circle class="st0" cx="79.9" cy="228.4" r="5"/>
		<circle class="st0" cx="79.8" cy="278" r="5"/>
		<circle class="st0" cx="79.7" cy="327.7" r="5"/>
		<circle class="st0" cx="79.6" cy="377.4" r="5"/>
		<circle class="st0" cx="105" cy="104.1" r="5"/>
		<circle class="st0" cx="104.9" cy="153.8" r="5"/>
		<circle class="st0" cx="104.8" cy="203.5" r="5"/>
		<circle class="st0" cx="104.7" cy="253.1" r="5"/>
		<circle class="st0" cx="104.6" cy="302.8" r="5"/>
		<circle class="st0" cx="104.5" cy="352.5" r="5"/>
		<circle class="st0" cx="129.8" cy="128.9" r="5"/>
		<circle class="st0" cx="129.7" cy="178.6" r="5"/>
		<circle class="st0" cx="129.6" cy="228.3" r="5"/>
		<circle class="st0" cx="129.5" cy="277.9" r="5"/>
		<circle class="st0" cx="129.4" cy="327.6" r="5"/>
		<circle class="st0" cx="154.6" cy="153.7" r="5"/>
		<circle class="st0" cx="154.5" cy="203.4" r="5"/>
		<circle class="st0" cx="154.4" cy="253.1" r="5"/>
		<circle class="st0" cx="154.3" cy="302.7" r="5"/>
		<circle class="st0" cx="179.3" cy="178.5" r="5"/>
		<circle class="st0" cx="179.3" cy="228.2" r="5"/>
		<circle class="st0" cx="179.2" cy="277.8" r="5"/>
		<circle class="st0" cx="204.1" cy="203.3" r="5"/>
		<circle class="st0" cx="204" cy="253" r="5"/>
		<circle class="st0" cx="228.9" cy="228.1" r="5"/>
	</g>
</g>
</svg>
