<?xml version="1.0" encoding="utf-8"?>
<!-- Generator: Adobe Illustrator 21.1.0, SVG Export Plug-In . SVG Version: 6.00 Build 0)  -->
<svg version="1.1" id="Capa_1" xmlns="http://www.w3.org/2000/svg" xmlns:xlink="http://www.w3.org/1999/xlink" x="0px" y="0px"
	 viewBox="0 0 120 120" style="enable-background:new 0 0 120 120;" xml:space="preserve">
<style type="text/css">
	.st0{fill:#004154;}
</style>
<path class="st0" d="M106.3,62.2H53.4c1.2-4.9,1.7-9.6,2-12.4c3-0.7,5.6-2.7,7.1-5.4l10-16.3c0-0.1,0.1-0.1,0.1-0.2
	c1.6-3.2,1.5-6.9-0.3-10c-2-3.3-5.5-5.2-9.3-5.2c-1.5,0-2.8,1.3-2.8,2.8c0,1.6,1.3,2.8,2.8,2.8c1.9,0,3.6,0.9,4.6,2.5
	c0.8,1.4,0.9,3,0.2,4.4l-10,16.3c0,0.1-0.1,0.1-0.1,0.2c-0.9,1.7-2.6,2.8-4.7,2.8c0,0,0,0,0,0c-2,0-3.8-1-4.7-2.7
	c0-0.1-0.1-0.1-0.1-0.2L37.9,25.3c-0.7-1.4-0.7-3,0.2-4.4c0.9-1.6,2.6-2.5,4.6-2.5c1.5,0,2.8-1.3,2.8-2.8s-1.3-2.8-2.8-2.8
	c-3.9,0-7.4,2-9.4,5.3c-1.8,3.1-1.9,6.9-0.2,10.1c0,0.1,0.1,0.1,0.1,0.2l10.2,16.3c1.4,2.6,3.7,4.4,6.5,5.2
	c-0.9,9.9-4.1,22.9-9.1,24.1c-1.7,0.4-6.5-0.2-15.4-14.5c1.8-1.9,2.9-4.5,2.9-7.4c0-5.9-4.8-10.8-10.7-10.8S6.9,45.9,6.9,51.8
	c0,5.9,4.8,10.7,10.7,10.7c1,0,2-0.2,3-0.4c7.2,11.6,13.6,17.3,19.4,17.3c0.7,0,1.4-0.1,2.1-0.3c1.6-0.4,3-1.2,4.2-2.3v23.6
	c0,3.8,3.1,6.8,6.8,6.8h53.2c3.8,0,6.8-3.1,6.8-6.8V69C113.1,65.2,110,62.2,106.3,62.2z M17.6,57c-2.8,0-5.1-2.3-5.1-5.1
	s2.3-5.1,5.1-5.1c2.8,0,5.1,2.3,5.1,5.1S20.4,57,17.6,57z M107.5,100.5c0,0.7-0.5,1.2-1.2,1.2l0,0H53.1c-0.7,0-1.2-0.6-1.2-1.2v-12
	h7.3c0.9,0,1.8-0.5,2.3-1.3l3.5-5.3l5.2,11.8c0.4,1,1.4,1.7,2.5,1.7c0,0,0.1,0,0.1,0c1.1,0,2-0.6,2.5-1.5l3.4-6.7h6.9
	c1.1,0,2-0.6,2.5-1.5l2-3.8l2.7,11.1c0.3,1.2,1.4,2.1,2.6,2.1c1.3,0,2.4-0.8,2.8-2l1.6-5.5h7.9V100.5z M107.5,81.9h-10
	c-0.6,0-1.2,0.2-1.7,0.6l-2.3-9.3c-0.3-1.1-1.2-2-2.4-2.1s-2.3,0.5-2.8,1.5l-4.6,9h-6.9c-1.1,0-2,0.6-2.5,1.5l-1.5,3L68,74.9
	c-0.4-0.9-1.3-1.6-2.3-1.7c-1-0.1-2,0.4-2.6,1.3l-5.5,8.3h-5.8V69c0-0.7,0.6-1.2,1.3-1.2h53.2c0.7,0,1.2,0.6,1.2,1.2V81.9z"/>
</svg>
