<?xml version="1.0" encoding="utf-8"?>
<!-- Generator: Adobe Illustrator 21.1.0, SVG Export Plug-In . SVG Version: 6.00 Build 0)  -->
<svg version="1.1" id="Capa_1" xmlns="http://www.w3.org/2000/svg" xmlns:xlink="http://www.w3.org/1999/xlink" x="0px" y="0px"
	 viewBox="0 0 120 120" style="enable-background:new 0 0 120 120;" xml:space="preserve">
<style type="text/css">
	.st0{fill:#004154;}
</style>
<g>
	<g>
		<path class="st0" d="M96.1,42.7l3.7-3.7c3.3-3.3,3.3-8.8,0-12.1c-3.3-3.3-8.8-3.3-12.1,0l-3.4,3.4c-4.7-3.2-10-5.6-15.7-6.7v-6.6
			h2.9c1.6,0,2.9-1.3,2.9-2.9s-1.3-2.9-2.9-2.9c-2.4,0-20.4,0-22.8,0c-1.6,0-2.9,1.3-2.9,2.9s1.3,2.9,2.9,2.9h2.9v6.6
			c-5.4,1.1-10.5,3.3-15,6.3l-2.9-2.9c-3.3-3.3-8.8-3.3-12.1,0s-3.3,8.8,0,12.1l3,3c-4.5,6.8-7.1,15-7.1,23.7
			c0,23.7,19.2,42.9,42.8,42.9s42.8-19.3,42.8-42.9C102.8,57.2,100.3,49.4,96.1,42.7z M91.7,31c1.1-1.1,2.9-1.1,4,0
			c1.1,1.1,1.1,2.9,0,4l-3.1,3.1c-1.2-1.5-2.5-2.8-3.9-4.1L91.7,31z M57.1,17.1h5.7v5.8c-0.9-0.1-1.9-0.1-2.9-0.1s-1.9,0-2.9,0.1
			V17.1z M25.4,31c1.1-1.1,2.9-1.1,4,0l2.4,2.4c-1.4,1.3-2.8,2.6-4,4L25.4,35C24.3,33.9,24.3,32.1,25.4,31z M60,102.9
			c-20.4,0-37.1-16.7-37.1-37.2S39.6,28.5,60,28.5s37.1,16.7,37.1,37.2S80.4,102.9,60,102.9z"/>
		<path class="st0" d="M60,34.2c-17.3,0-31.4,14.2-31.4,31.5C28.6,83,42.7,97.1,60,97.1c17.3,0,31.4-14,31.4-31.4
			C91.4,48.4,77.3,34.2,60,34.2z M60,62.9c1.6,0,2.9,1.3,2.9,2.9c0,1.6-1.3,2.9-2.9,2.9s-2.9-1.3-2.9-2.9
			C57.1,64.1,58.4,62.9,60,62.9z M62.9,91.2v-2.7c0-1.6-1.3-2.9-2.9-2.9s-2.9,1.3-2.9,2.9v2.7c-4.9-0.5-9.5-2.5-13.2-5.5l1.9-1.9
			c1.1-1.1,1.1-2.9,0-4c-1.1-1.1-2.9-1.1-4,0L40,81.7c-3-3.7-4.9-8.2-5.5-13.2h2.7c1.6,0,2.9-1.3,2.9-2.9c0-1.6-1.3-2.9-2.9-2.9
			h-2.7c0.5-5,2.5-9.6,5.5-13.3l1.9,1.9c1.1,1.1,2.9,1.1,4,0c1.1-1.1,1.1-2.9,0-4L44,45.5c3.7-3,8.2-4.9,13.1-5.5v17.6
			c-3.3,1.2-5.7,4.3-5.7,8.1c0,4.7,3.8,8.6,8.6,8.6c1.5,0,2.9-0.4,4.2-1.1l13.1,11.5C73.4,88.2,68.4,90.6,62.9,91.2z M81.1,80.3
			L67.9,68.9c0.4-1,0.6-2,0.6-3.2c0-3.7-2.4-6.9-5.7-8.1V40c4.9,0.6,9.4,2.5,13.1,5.5l-1.9,1.9c-1.1,1.1-1.1,2.9,0,4
			c1.1,1.1,2.9,1.1,4,0l1.9-1.9c3,3.7,4.9,8.3,5.5,13.3h-2.7c-1.6,0-2.9,1.3-2.9,2.9c0,1.6,1.3,2.8,2.9,2.8h2.7
			C85,72.9,83.4,76.9,81.1,80.3z"/>
	</g>
</g>
</svg>
