<?xml version="1.0" encoding="utf-8"?>
<!-- Generator: Adobe Illustrator 21.1.0, SVG Export Plug-In . SVG Version: 6.00 Build 0)  -->
<svg version="1.1" id="Capa_1" xmlns="http://www.w3.org/2000/svg" xmlns:xlink="http://www.w3.org/1999/xlink" x="0px" y="0px"
	 viewBox="0 0 120 120" style="enable-background:new 0 0 120 120;" xml:space="preserve">
<style type="text/css">
	.st0{fill:#004154;}
</style>
<g>
	<g>
		<path class="st0" d="M105.8,11.4H94.4c-1.6,0-2.9,1.3-2.9,2.9v2.9h-6.4c-0.8,0-1.5-0.3-2-0.8l-2.4-2.4c-1.6-1.6-3.8-2.5-6-2.5
			H57.4c-1.9,0-3.8,0.7-5.3,1.9l-11.9,9.5H28.5v-2.9c0-1.6-1.3-2.9-2.9-2.9H14.2c-1.6,0-2.9,1.3-2.9,2.9v39.9c0,1.6,1.3,2.9,2.9,2.9
			h11.4c1.6,0,2.9-1.3,2.9-2.9V57h1.8l2.3,6.2c1.6,4.4,6.6,6.7,11,5.1c2-0.7,3.6-2.1,4.6-4c2,0.8,4.1,0.8,6.1,0.1
			c2.1-0.8,3.6-2.2,4.6-4c2,0.8,4.1,0.8,6.1,0.1c2-0.7,3.6-2.1,4.6-4c1.9,0.8,4,0.8,6.1,0.1c2.5-0.9,4.3-2.9,5.1-5.3h10.8v2.9
			c0,1.6,1.3,2.9,2.9,2.9h11.4c1.6,0,2.9-1.3,2.9-2.9V14.2C108.6,12.6,107.4,11.4,105.8,11.4z M22.8,57h-5.7V22.8h5.7V57z
			 M73.7,51.2c-1.5,0.5-3.1-0.2-3.7-1.7l-3.1-8.6c-0.5-1.5-2.2-2.3-3.6-1.7c-1.5,0.5-2.3,2.2-1.7,3.6l3.1,8.6
			c0.5,1.5-0.2,3.1-1.7,3.7c-1.5,0.5-3.1-0.2-3.7-1.7l-3-8.5c-0.5-1.5-2.2-2.3-3.6-1.7c-1.5,0.5-2.3,2.2-1.7,3.6l3,8.5c0,0,0,0,0,0
			c0.5,1.5-0.2,3.1-1.7,3.7c-1.5,0.6-3.1-0.2-3.7-1.7l-3.1-8.4c-0.5-1.5-2.2-2.2-3.7-1.7c-1.5,0.5-2.2,2.2-1.7,3.7l3.1,8.4
			c0.5,1.5-0.2,3.1-1.7,3.7c-1.5,0.5-3.1-0.2-3.7-1.7l-3-8.1c-0.4-1.1-1.5-1.9-2.7-1.9h-3.8V28.5h6.4c-1.1,2.8-0.8,6,1.3,8.5
			c2.9,3.7,8.3,4.3,12,1.3l12.3-9.9h7.9l7,19.1C75.9,49,75.1,50.6,73.7,51.2z M91.5,45.6H80.7L73,24.6c-0.4-1.1-1.5-1.9-2.7-1.9
			H59.4c-0.6,0-1.3,0.2-1.8,0.6L44.5,33.9c-1.2,1-3,0.8-4-0.4c-1-1.2-0.8-3,0.4-4l14.7-11.8c0.5-0.4,1.1-0.6,1.8-0.6h17.3
			c0.8,0,1.5,0.3,2,0.8l2.4,2.4c1.6,1.6,3.8,2.5,6,2.5h6.4V45.6z M102.9,51.3h-5.7V17.1h5.7V51.3z"/>
		<path class="st0" d="M79.4,72.9c0.9-1.3,0.7-3.1-0.6-4c-1.3-0.9-3.1-0.7-4,0.6l-2.4,3.2C69,70,64.7,68.4,60,68.4
			c-11,0-20,9-20,20.1s9,20.1,20,20.1s20-9,20-20.1c0-4.3-1.3-8.2-3.6-11.5L79.4,72.9z M60,102.9c-7.9,0-14.3-6.5-14.3-14.4
			S52.1,74.1,60,74.1c3.4,0,6.6,1.2,9,3.3L59.7,90l-3.4-3.5c-1.1-1.1-2.9-1.2-4-0.1c-1.1,1.1-1.2,2.9-0.1,4l5.7,5.9
			c0.5,0.6,1.3,0.9,2,0.9c0.1,0,0.1,0,0.2,0c0.8-0.1,1.6-0.5,2.1-1.2L72.7,82c1,2,1.5,4.2,1.5,6.5C74.3,96.5,67.9,102.9,60,102.9z"
			/>
	</g>
</g>
</svg>
